<svg width="96" height="96" viewBox="0 0 165 165" fill="none" xmlns="http://www.w3.org/2000/svg">
<rect width="165" height="165" rx="32" fill="#92A7C8"/>
<path d="M133.466 25.6666L124.113 127.955L82.0704 139.333L40.1433 127.971L30.7998 25.6666H133.466Z" fill="white"/>
<path d="M82.1338 130.636L116.107 121.441L124.099 34.0312H82.1338V130.636Z" fill="white"/>
<path d="M63.9507 59.126H82.133V46.5789H49.9043L50.2118 49.945L53.3709 84.5217H82.133V71.9745H65.1254L63.9507 59.126ZM66.8475 90.7955H53.9452L55.7457 110.496L82.0738 117.631L82.133 117.615V104.561L82.0766 104.575L67.7626 100.802L66.8475 90.7955Z" fill="#92A7C8"/>
<path d="M82.0883 84.5217H97.9151L96.4228 100.794L82.0879 104.572V117.625L108.437 110.496L108.63 108.377L111.651 75.3438L111.964 71.9745H82.0883V84.5217ZM82.0883 59.0954V59.126H113.134L113.391 56.306L113.977 49.945L114.284 46.5789H82.0883V59.0954Z" fill="#92A7C8"/>
</svg>
