<svg width="20" height="20" viewBox="0 0 22 28" fill="none" xmlns="http://www.w3.org/2000/svg">
<path d="M8.65625 1.8125H3.03125C2.255 1.8125 1.625 2.4425 1.625 3.21875V24.7812C1.625 25.5575 2.255 26.1875 3.03125 26.1875H18.9688C19.745 26.1875 20.375 25.5575 20.375 24.7812V13.5312M8.65625 1.8125H9.125C12.1087 1.8125 14.9702 2.99776 17.08 5.10755C19.1897 7.21733 20.375 10.0788 20.375 13.0625V13.5312M8.65625 1.8125C9.77513 1.8125 10.8482 2.25697 11.6394 3.04814C12.4305 3.83931 12.875 4.91237 12.875 6.03125V7.90625C12.875 8.6825 13.505 9.3125 14.2812 9.3125H16.1562C17.2751 9.3125 18.3482 9.75697 19.1394 10.5481C19.9305 11.3393 20.375 12.4124 20.375 13.5312M7.25 17.75L10.0625 20.5625L14.75 14" stroke="#92A7C8" stroke-width="2" stroke-linecap="round" stroke-linejoin="round"/>
</svg>
