<svg width="37" height="36" viewBox="0 0 37 36" fill="none" xmlns="http://www.w3.org/2000/svg">
<path d="M18.5 0C16.1362 0 13.7956 0.477143 11.6117 1.40419C9.42784 2.33123 7.44353 3.69002 5.77208 5.40297C2.39642 8.86243 0.5 13.5545 0.5 18.4469C0.5 26.6004 5.666 33.518 12.812 35.9714C13.712 36.119 14 35.5471 14 35.0491V31.9316C9.014 33.0384 7.952 29.4597 7.952 29.4597C7.124 27.3198 5.954 26.748 5.954 26.748C4.316 25.6043 6.08 25.6412 6.08 25.6412C7.88 25.7703 8.834 27.5412 8.834 27.5412C10.4 30.3451 13.046 29.515 14.072 29.0723C14.234 27.8732 14.702 27.0616 15.206 26.6004C11.21 26.1392 7.016 24.5528 7.016 17.5245C7.016 15.4769 7.7 13.8352 8.87 12.5254C8.69 12.0643 8.06 10.1458 9.05 7.65546C9.05 7.65546 10.562 7.15739 14 9.53704C15.422 9.13121 16.97 8.92829 18.5 8.92829C20.03 8.92829 21.578 9.13121 23 9.53704C26.438 7.15739 27.95 7.65546 27.95 7.65546C28.94 10.1458 28.31 12.0643 28.13 12.5254C29.3 13.8352 29.984 15.4769 29.984 17.5245C29.984 24.5713 25.772 26.1208 21.758 26.582C22.406 27.1538 23 28.2791 23 29.9946V35.0491C23 35.5471 23.288 36.1374 24.206 35.9714C31.352 33.4995 36.5 26.6004 36.5 18.4469C36.5 16.0244 36.0344 13.6256 35.1298 11.3876C34.2252 9.14949 32.8994 7.11592 31.2279 5.40297C29.5565 3.69002 27.5722 2.33123 25.3883 1.40419C23.2044 0.477143 20.8638 0 18.5 0Z" fill="#92A7C8"/>
</svg>
