<svg width="76" height="67" viewBox="0 0 76 67" fill="none" xmlns="http://www.w3.org/2000/svg">
<path d="M44.5881 33.3292C44.5881 35.1775 43.8504 36.9502 42.5371 38.2575C41.2239 39.5648 39.4426 40.2996 37.585 40.3004C35.7268 40.3004 33.9448 39.566 32.6308 38.2586C31.3169 36.9512 30.5787 35.1781 30.5787 33.3292C30.5787 31.4808 31.3165 29.7081 32.6297 28.4009C33.943 27.0936 35.7242 26.3588 37.5819 26.3579C39.44 26.3579 41.2221 27.0924 42.536 28.3998C43.85 29.7071 44.5881 31.4803 44.5881 33.3292ZM52.8853 0.000604325C48.6678 0.000604325 43.1499 2.99363 37.5693 8.17531C31.9919 3.02169 26.4709 0.062959 22.2565 0.062959C20.9718 0.062959 19.803 0.352908 18.7909 0.929689C14.4825 3.40205 13.5174 11.106 15.7421 20.7741C6.20411 23.7047 0 28.3907 0 33.3292C0 38.2864 6.23544 42.9848 15.8017 45.8937C13.5958 55.5992 14.5797 63.3156 18.8975 65.7848C19.9002 66.3678 21.0595 66.6422 22.3505 66.6422C26.5649 66.6422 32.0859 63.6492 37.6665 58.4613C43.2439 63.618 48.7649 66.5767 52.9793 66.5767C54.264 66.5767 55.4328 66.2961 56.4449 65.7193C60.7501 63.2501 61.7184 55.5462 59.4936 45.875C68.9972 42.9692 75.2013 38.2739 75.2013 33.3292C75.2013 28.372 68.9659 23.6736 59.3996 20.7585C61.6056 11.0623 60.6217 3.3397 56.3039 0.867335C55.2599 0.283672 54.0827 -0.0153187 52.8853 0.000604325ZM52.8697 3.39894V3.41764C53.5747 3.41764 54.1418 3.55482 54.6181 3.81359C56.7049 5.00457 57.6105 9.53464 56.9055 15.3617C56.7363 16.7958 56.4605 18.3079 56.1221 19.8512C52.9181 19.0801 49.6656 18.5239 46.3867 18.1864C44.4332 15.5057 42.303 12.9571 40.0102 10.5573C44.9986 5.94301 49.683 3.41141 52.8728 3.40205L52.8697 3.39894ZM22.2565 3.46129C25.4274 3.46129 30.1338 5.98042 35.1347 10.5697C32.9852 12.8145 30.8419 15.3617 28.8052 18.1832C25.519 18.5192 22.2599 19.0797 19.051 19.8606C18.7145 18.3984 18.4489 16.921 18.2551 15.4334C17.5344 9.60946 18.4243 5.08251 20.4924 3.87595C21.0877 3.59535 21.7457 3.47688 22.2565 3.46129ZM37.5537 12.9704C38.9825 14.4336 40.403 16.059 41.8151 17.8465C40.4364 17.7842 39.0264 17.7405 37.6007 17.7405C36.1572 17.7384 34.7367 17.7738 33.3393 17.8465C34.7179 16.0632 36.1436 14.4326 37.5537 12.9704ZM37.6007 21.1576C39.9194 21.1576 42.2287 21.2636 44.5004 21.4475C45.7746 23.2641 47.0102 25.1971 48.2072 27.2465C49.3707 29.2439 50.434 31.2663 51.397 33.3136C50.4319 35.3557 49.3728 37.3978 48.2229 39.3932C47.0322 41.4509 45.8007 43.4088 44.5255 45.2234C39.9263 45.6244 35.301 45.6296 30.7009 45.2389C29.3865 43.357 28.1499 41.4223 26.9941 39.44C25.8306 37.4425 24.7673 35.4202 23.8044 33.3728C24.772 31.2968 25.8311 29.2641 26.9785 27.2808C28.1692 25.2231 29.4006 23.2714 30.6759 21.4569C32.9785 21.2534 35.289 21.1514 37.6007 21.1513V21.1576ZM26.2108 21.9495C25.4588 23.1248 24.7068 24.3283 24.0049 25.566C23.303 26.7819 22.6398 28.002 22.0152 29.2263C21.1848 27.181 20.4798 25.142 19.897 23.156C21.9024 22.6884 24.0174 22.2706 26.2108 21.9495ZM48.9592 21.9495C51.14 22.2675 53.2352 22.6697 55.2448 23.156C54.6808 25.1264 53.9758 27.153 53.1767 29.1826C51.8979 26.701 50.4912 24.2868 48.9623 21.9495H48.9592ZM58.5568 24.0539C60.0754 24.5237 61.5115 25.0412 62.8652 25.6066C68.2922 27.9137 71.8016 30.9317 71.8016 33.3261C71.7859 35.7205 68.2765 38.7509 62.8495 41.0425C61.5335 41.6037 60.0921 42.1087 58.6038 42.5795C57.6623 39.4102 56.5109 36.3065 55.157 33.2887C56.5671 30.1179 57.6951 27.022 58.5568 24.0477V24.0539ZM16.585 24.0664C17.4561 27.0594 18.6061 30.1678 20.0318 33.3573C18.6861 36.3564 17.5491 39.444 16.6289 42.5982C15.1123 42.1306 13.671 41.6068 12.3362 41.0394C6.90912 38.7416 3.39973 35.7205 3.39973 33.3261C3.39973 30.9317 6.90912 27.895 12.3362 25.6066C13.6522 25.0454 15.0935 24.5403 16.585 24.0664ZM53.1767 37.4103C54.0071 39.4587 54.7121 41.5008 55.2949 43.4837C53.2895 43.9731 51.1714 44.3878 48.978 44.6996C50.5043 42.3437 51.9037 39.9107 53.1767 37.4103ZM22.0152 37.4727C22.6419 38.6948 23.2999 39.9138 24.0206 41.136C24.7412 42.354 25.4776 43.5419 26.2296 44.6996C24.1168 44.3955 22.0194 43.9939 19.944 43.4961C20.508 41.532 21.2162 39.4992 22.0121 37.4695L22.0152 37.4727ZM56.1503 46.7853C56.5013 48.3224 56.777 49.8033 56.9462 51.2219C57.6669 57.0458 56.777 61.5728 54.709 62.7824C54.2484 63.063 53.6499 63.1815 52.9449 63.1815C49.7739 63.1815 45.0675 60.6655 40.0666 56.0731C42.2161 53.8283 44.3594 51.2842 46.3961 48.4658C49.8647 48.0979 53.1454 47.5336 56.1503 46.7853ZM19.0823 46.8165C22.0904 47.5461 25.3679 48.1104 28.8178 48.4751C30.8858 51.2967 33.0322 53.8595 35.1942 56.1011C30.1965 60.7247 25.5058 63.2563 22.316 63.2563C21.7136 63.2592 21.1193 63.1181 20.5832 62.8448C18.4964 61.6601 17.5908 57.1269 18.2959 51.2998C18.4651 49.8657 18.7439 48.3567 19.0823 46.8165ZM33.3706 48.8119C34.7514 48.8784 36.1562 48.9137 37.585 48.9179C39.0284 48.9199 40.4489 48.8846 41.8464 48.8119C40.4677 50.5952 39.042 52.2258 37.632 53.6911C36.2032 52.2237 34.7827 50.5973 33.3706 48.8119Z" fill="#92A7C8"/>
</svg>
