<svg width="68" height="67" viewBox="0 0 68 67" fill="none" xmlns="http://www.w3.org/2000/svg">
<path d="M33.472 0C16.354 0 17.423 7.37423 17.423 7.37423L17.4421 15.0139H33.7775V17.3076H10.9538C10.9538 17.3076 0 16.0736 0 33.2313C0 50.3891 9.56069 49.7809 9.56069 49.7809H15.2666V41.8189C15.2666 41.8189 14.959 32.3216 24.6747 32.3216H40.8762C40.8762 32.3216 49.9789 32.4677 49.9789 23.5824V8.89078C49.9789 8.89078 51.3609 0 33.472 0ZM24.4647 5.13731C26.0901 5.13731 27.4036 6.44219 27.4036 8.05666C27.4036 9.67114 26.0901 10.976 24.4647 10.976C22.8395 10.976 21.5259 9.67114 21.5259 8.05666C21.5259 6.44219 22.8395 5.13731 24.4647 5.13731Z" fill="#92A7C8"/>
<path d="M33.9585 66.6347C51.0763 66.6347 50.0076 59.2608 50.0076 59.2608L49.9884 51.621H33.6531V49.3271H56.4768C56.4768 49.3271 67.4305 50.5613 67.4305 33.4034C67.4305 16.2456 57.8699 16.8541 57.8699 16.8541H52.164V24.8161C52.164 24.8161 52.4715 34.3134 42.7558 34.3134H26.5544C26.5544 34.3134 17.4515 34.167 17.4515 43.0524V57.744C17.4515 57.744 16.0695 66.6347 33.9585 66.6347ZM42.9658 61.4974C41.3404 61.4974 40.0269 60.1925 40.0269 58.5782C40.0269 56.9636 41.3404 55.6588 42.9658 55.6588C44.5909 55.6588 45.9048 56.9636 45.9048 58.5782C45.9048 60.1925 44.5909 61.4974 42.9658 61.4974Z" fill="#92A7C8"/>
</svg>
