<svg width="62" height="61" viewBox="0 0 62 61" fill="none" xmlns="http://www.w3.org/2000/svg">
<path d="M55.1968 0H5.98193C4.39542 0 2.87389 0.627088 1.75206 1.74331C0.630236 2.85954 0 4.37346 0 5.95204V54.9211C0 56.4997 0.630236 58.0136 1.75206 59.1298C2.87389 60.2461 4.39542 60.8731 5.98193 60.8731H55.1968C55.9824 60.8731 56.7603 60.7192 57.486 60.4201C58.2118 60.1209 58.8712 59.6825 59.4267 59.1298C59.9822 58.5771 60.4228 57.921 60.7234 57.1988C61.024 56.4767 61.1788 55.7027 61.1788 54.9211V5.95204C61.1788 5.17041 61.024 4.39643 60.7234 3.67429C60.4228 2.95216 59.9822 2.29601 59.4267 1.74331C58.8712 1.19061 58.2118 0.75219 57.486 0.453072C56.7603 0.153954 55.9824 0 55.1968 0ZM35.4837 33.8184H27.8363V55.5975H21.7525V33.8184H14.1051V28.8809H35.4837V33.8184ZM55.1968 51.6745C54.7048 52.7155 53.912 53.5868 52.9196 54.1771C51.8756 54.8165 50.7242 55.2632 49.5208 55.496C48.1791 55.7717 46.8122 55.9077 45.4422 55.9018C44.0404 55.9006 42.6415 55.7761 41.2617 55.5298C40.0889 55.2909 38.9482 54.9163 37.8629 54.4138V48.6309L37.6589 48.428H37.8629V48.6647C38.8852 49.4583 40.0341 50.0756 41.2617 50.4909C42.4876 50.9553 43.7907 51.1848 45.1024 51.1673C45.7878 51.1792 46.4722 51.1111 47.1416 50.9643C47.6445 50.8473 48.126 50.6533 48.5691 50.3894C48.916 50.179 49.2074 49.8891 49.4189 49.544C49.6281 49.1509 49.7201 48.7065 49.684 48.2631C49.6479 47.8197 49.4851 47.3958 49.2149 47.0414C48.8954 46.5957 48.4913 46.2166 48.0253 45.9254C47.4596 45.5296 46.8562 45.1898 46.224 44.9109L43.9468 43.9639C42.1441 43.2252 40.5469 42.0652 39.2904 40.5821C38.2388 39.3208 37.6832 37.7225 37.7269 36.0842C37.6873 34.8397 37.9681 33.6057 38.5426 32.4995C39.0909 31.5353 39.8593 30.7128 40.7858 30.0984C41.8182 29.415 42.9715 28.933 44.1847 28.678C45.5109 28.3743 46.8684 28.2267 48.2293 28.2384C49.4685 28.2212 50.7072 28.3003 51.934 28.4751C52.9547 28.6339 53.9567 28.8945 54.9249 29.2529V34.833C54.4775 34.5157 53.9993 34.2438 53.4974 34.0213C52.957 33.7899 52.4004 33.5977 51.832 33.4464C51.2873 33.2878 50.7302 33.1746 50.1666 33.1082C49.6466 33.0594 49.1231 33.0594 48.6031 33.1082C47.9627 33.0977 47.3234 33.1658 46.6998 33.3111C46.1882 33.4179 45.6956 33.6003 45.2383 33.8522C44.8814 34.0615 44.5787 34.351 44.3546 34.6977C44.1512 35.0345 44.0453 35.4207 44.0487 35.8137C44.0404 36.2332 44.1588 36.6455 44.3886 36.9973C44.6678 37.3815 45.013 37.7135 45.4082 37.9781C45.8875 38.3577 46.4127 38.6758 46.9717 38.925L49.113 39.8719C50.0975 40.2769 51.0516 40.7516 51.968 41.2923C52.7737 41.731 53.5073 42.2899 54.1432 42.9494C54.7663 43.5502 55.253 44.2766 55.5707 45.0799C55.8967 46.0032 56.0577 46.976 56.0466 47.9545C56.0222 49.2176 55.7328 50.4617 55.1968 51.6069V51.6745Z" fill="#92A7C8"/>
</svg>
