<svg width="50" height="50" viewBox="0 0 55 55" fill="none" xmlns="http://www.w3.org/2000/svg">
<path d="M12.9218 22.0917C12.4302 22.5834 12.4302 23.3455 12.9218 23.8371C14.1754 25.0926 14.9349 26.7576 15.0613 28.5272C15.1877 30.2969 14.6725 32.0529 13.6102 33.4738C13.2414 33.9655 13.3152 34.6292 13.7331 35.0717C14.2739 35.6125 15.1343 35.5388 15.6014 34.9488C16.8854 33.2218 17.5706 31.1228 17.5529 28.9708C17.5351 26.8189 16.8154 24.7315 15.5031 23.0259L34.2356 4.29338C35.4402 3.0888 37.3822 3.0888 38.5868 4.29338C39.7914 5.49797 39.7914 7.44005 38.5868 8.64463L25.9756 21.2559C25.4839 21.7475 25.4839 22.5096 25.9756 23.0013C26.4672 23.493 27.2293 23.493 27.721 23.0013L43.7985 6.9238C45.0031 5.71922 46.9452 5.71922 48.1497 6.9238C49.3543 8.12838 49.3543 10.0705 48.1497 11.2751L32.0722 27.3525C31.5806 27.8442 31.5806 28.6063 32.0722 29.098C32.5639 29.5896 33.326 29.5896 33.8177 29.098L47.2893 15.6263C48.4939 14.4217 50.436 14.4217 51.6406 15.6263C52.8452 16.8309 52.8452 18.773 51.6406 19.9775L36.4235 35.1946C35.9318 35.6863 35.9318 36.4484 36.4235 36.9401C36.9152 37.4317 37.6772 37.4317 38.1689 36.9401L48.1743 26.9346C48.4598 26.6485 48.7989 26.4214 49.1722 26.2665C49.5455 26.1116 49.9458 26.0318 50.3499 26.0318C50.7541 26.0318 51.1544 26.1116 51.5277 26.2665C51.901 26.4214 52.2401 26.6485 52.5256 26.9346C53.7302 28.1392 53.7302 30.0813 52.5256 31.2859L35.1452 48.6663C27.2293 56.5821 14.3722 56.5821 6.45641 48.6663C-1.45943 40.7505 -1.45943 27.8934 6.45641 19.9775L17.7647 8.66922C18.0502 8.38305 18.3893 8.156 18.7626 8.00109C19.1359 7.84617 19.5362 7.76643 19.9404 7.76643C20.3446 7.76643 20.7448 7.84617 21.1181 8.00109C21.4914 8.156 21.8305 8.38305 22.116 8.66922C23.3206 9.8738 23.3206 11.8159 22.116 13.0205L12.9218 22.0917ZM15.2081 2.42505C15.2081 1.41713 14.3722 0.581299 13.3643 0.581299C13.266 0.581299 13.1922 0.581299 13.0939 0.605882C6.62849 1.54005 1.53974 6.65338 0.605573 13.0942C0.605573 13.168 0.580989 13.2663 0.580989 13.3646C0.580989 14.3725 1.41682 15.2084 2.42474 15.2084C3.35891 15.2084 4.12099 14.5201 4.24391 13.6351C4.58428 11.2718 5.68063 9.0822 7.36897 7.39386C9.05731 5.70553 11.2469 4.60917 13.6102 4.2688C14.5197 4.1213 15.2081 3.35922 15.2081 2.42505ZM39.7914 52.5751C39.7914 53.583 40.6272 54.4188 41.6352 54.4188C41.7335 54.4188 41.8072 54.4188 41.9056 54.3942C48.371 53.4601 53.4597 48.3467 54.3939 41.9059C54.3939 41.8321 54.4185 41.7338 54.4185 41.6355C54.4185 40.6276 53.5827 39.7917 52.5747 39.7917C51.6406 39.7917 50.8785 40.4801 50.7556 41.3651C50.4152 43.7283 49.3188 45.9179 47.6305 47.6062C45.9422 49.2946 43.7526 50.3909 41.3893 50.7313C40.4797 50.8788 39.7914 51.6409 39.7914 52.5751Z" fill="#FAFCFF"/>
</svg>
