<svg width="53" height="68" viewBox="0 0 53 68" fill="none" xmlns="http://www.w3.org/2000/svg">
<path d="M30.4012 0C34.0677 8.61387 17.2548 13.8905 15.691 21.07C14.2605 27.6586 25.6521 35.3874 25.6626 35.3874C23.9235 32.6619 22.6577 30.3633 20.9213 26.1123C17.9792 18.9328 38.8482 12.4561 30.4012 0ZM41.5157 11.9589C41.5157 11.9589 26.8158 12.8831 26.0705 22.4523C25.7306 26.7137 29.9514 28.9498 30.0743 32.0528C30.1789 34.583 27.5402 36.6864 27.5402 36.6864C27.5402 36.6864 32.2711 35.8352 33.7512 31.9695C35.3857 27.6795 30.566 24.7509 31.055 21.3121C31.5257 18.0295 41.5157 11.9589 41.5157 11.9589ZM45.1115 34.0025C43.5686 33.9323 41.8321 34.5024 40.2891 35.6295C43.3332 34.9605 45.93 36.8608 45.93 39.0475C45.93 43.9492 38.9005 48.5646 38.9005 48.5646C38.9005 48.5646 49.7691 47.3542 49.7691 39.2922C49.7691 35.9653 47.677 34.1249 45.1115 34.0025ZM16.2637 34.0858C12.4717 34.216 4.90342 34.8382 4.90342 37.7459C4.90342 41.7938 22.5348 42.1088 35.1425 39.6176C35.1425 39.6176 38.5736 37.2383 39.4732 36.3636C31.2093 38.0713 12.3409 38.3368 12.3409 36.8504C12.3409 35.489 18.3872 34.0858 18.3872 34.0858C18.3872 34.0858 17.5294 34.0442 16.2637 34.0858ZM15.1182 41.5699C13.0444 41.5699 9.96899 43.1761 9.96899 44.7406C9.96899 47.893 25.5815 50.314 37.1039 45.7168L33.0975 43.2776C25.2834 45.8209 10.8477 44.9749 15.1182 41.5699ZM17.0796 48.6453C14.25 48.6453 12.422 50.4259 12.422 51.7379C12.422 55.7728 29.329 56.1711 36.0395 52.0633L31.7899 49.2961C26.7845 51.4438 14.1899 51.7587 17.0796 48.6453ZM7.59965 52.308C2.9839 52.2169 0 54.2994 0 56.0461C0 65.3499 47.3187 64.9047 47.3187 55.3954C47.3187 53.8204 45.4489 53.0681 44.7846 52.7115C48.6472 61.8017 6.12993 61.0911 6.12993 55.7208C6.12993 54.5025 9.27597 53.2816 12.1762 53.8517L9.72578 52.4668C9.0216 52.3648 8.31123 52.3134 7.59965 52.308ZM52.3032 58.5712C45.1115 65.4956 26.91 67.9765 8.58034 63.6968C26.9074 71.3241 52.2117 67.081 52.3032 58.5712Z" fill="#92A7C8"/>
</svg>
