<svg width="62" height="61" viewBox="0 0 62 61" fill="none" xmlns="http://www.w3.org/2000/svg">
<mask id="mask0_3103_22" style="mask-type:luminance" maskUnits="userSpaceOnUse" x="0" y="0" width="62" height="61">
<path d="M0 14C0 6.26801 6.26801 0 14 0H47.1788C54.9107 0 61.1788 6.26801 61.1788 14V46.8731C61.1788 54.6051 54.9108 60.8731 47.1788 60.8731H14C6.26803 60.8731 0 54.6051 0 46.8731V14Z" fill="white"/>
</mask>
<g mask="url(#mask0_3103_22)">
<path fill-rule="evenodd" clip-rule="evenodd" d="M0 14C0 6.26801 6.26801 0 14 0H47.1788C54.9107 0 61.1788 6.26801 61.1788 14V46.8731C61.1788 54.6051 54.9108 60.8731 47.1788 60.8731H14C6.26803 60.8731 0 54.6051 0 46.8731V14ZM46.7686 51.032C45.0765 51.032 43.8232 50.5087 42.826 49.6612C41.6662 48.6755 40.047 48.1641 38.7292 48.9259V48.9259C37.4368 49.6731 36.9258 51.3376 37.9165 52.4545C39.8465 54.6305 42.8221 56.1073 46.9012 56.1073C52.3614 56.1073 56.4272 53.2868 56.4272 48.1354C56.4272 43.3594 53.6691 41.2365 48.785 39.149L47.3473 38.5378C44.8797 37.4725 43.8116 36.7801 43.8116 35.0629C43.8116 33.6755 44.8823 32.6128 46.5647 32.6128C47.2725 32.6128 47.8724 32.7403 48.4045 33.0249C49.7431 33.7407 51.3409 34.3749 52.6203 33.5579V33.5579C53.8073 32.7998 54.2294 31.1997 53.2609 30.1771C51.5391 28.3591 49.3511 27.6237 46.5647 27.6237C41.4308 27.6237 38.145 30.8906 38.145 35.1821C38.145 39.8364 40.898 42.0405 45.048 43.7982L46.4857 44.412C49.1087 45.5534 50.6713 46.2484 50.6713 48.209C50.6713 49.8475 49.1495 51.032 46.7686 51.032ZM24.4894 50.9939C23.659 50.9939 23.0322 50.7564 22.5175 50.3624C21.2537 49.395 19.6621 48.7303 18.299 49.5517V49.5517C17.0553 50.3012 16.5432 51.9143 17.4855 53.019C19.025 54.8239 21.3584 56.0971 24.7315 56.0971C29.8272 56.0971 33.3169 53.401 33.3169 47.4785V30.8225C33.3169 29.2352 32.0301 27.9484 30.4428 27.9484V27.9484C28.8555 27.9484 27.5687 29.2352 27.5687 30.8225V47.4024C27.5687 50.2609 26.3757 50.9939 24.4868 50.9939" fill="#92A7C8"/>
</g>
</svg>
