<svg width="60" height="66" viewBox="0 0 60 66" fill="none" xmlns="http://www.w3.org/2000/svg">
<path d="M59.8192 0L54.3696 59.301L29.873 65.8976L5.44402 59.3101L0 0H59.8192Z" fill="#92A7C8"/>
<path d="M29.9102 60.8553L49.7046 55.5249L54.3615 4.84932H29.9102V60.8553Z" fill="#92A7C8"/>
<path d="M19.316 19.3978H29.91V12.1236H11.1318L11.311 14.0751L13.1517 34.1208H29.91V26.8466H20.0005L19.316 19.3978ZM21.0038 37.758H13.4863L14.5354 49.1795L29.8756 53.3157L29.91 53.3066V45.7384L29.8772 45.7468L21.5371 43.5594L21.0038 37.758Z" fill="white"/>
<path d="M29.883 34.1208H39.1046L38.2351 43.5548L29.8828 45.7446V53.3123L45.2352 49.1795L45.3477 47.9505L47.1078 28.8L47.2904 26.8466H29.883V34.1208ZM29.883 19.38V19.3978H47.9719L48.1219 17.7629L48.4633 14.0751L48.6422 12.1236H29.883V19.38Z" fill="white"/>
</svg>
