<svg width="96" height="96" viewBox="0 0 97 96" fill="none" xmlns="http://www.w3.org/2000/svg">
<rect x="0.727539" width="96.1381" height="95.6578" rx="32" fill="#92A7C8"/>
<path d="M53.0145 9.94897C56.681 18.5628 39.8681 23.8395 38.3042 31.019C36.8737 37.6076 48.2654 45.3364 48.2758 45.3364C46.5368 42.6109 45.271 40.3123 43.5346 36.0613C40.5925 28.8818 61.4615 22.4051 53.0145 9.94897ZM64.1289 21.9079C64.1289 21.9079 49.4291 22.832 48.6838 32.4013C48.3438 36.6627 52.5647 38.8988 52.6876 42.0017C52.7922 44.532 50.1535 46.6354 50.1535 46.6354C50.1535 46.6354 54.8843 45.7841 56.3645 41.9184C57.999 37.6284 53.1793 34.6999 53.6683 31.2611C54.139 27.9785 64.1289 21.9079 64.1289 21.9079ZM67.7248 43.9515C66.1818 43.8812 64.4454 44.4513 62.9024 45.5785C65.9465 44.9095 68.5433 46.8098 68.5433 48.9965C68.5433 53.8982 61.5138 58.5136 61.5138 58.5136C61.5138 58.5136 72.3824 57.3032 72.3824 49.2411C72.3824 45.9143 70.2902 44.0739 67.7248 43.9515ZM38.877 44.0348C35.085 44.165 27.5167 44.7871 27.5167 47.6949C27.5167 51.7428 45.1481 52.0578 57.7558 49.5665C57.7558 49.5665 61.1869 47.1873 62.0865 46.3126C53.8226 48.0203 34.9542 48.2858 34.9542 46.7994C34.9542 45.4379 41.0005 44.0348 41.0005 44.0348C41.0005 44.0348 40.1427 43.9932 38.877 44.0348ZM37.7315 51.5189C35.6577 51.5189 32.5823 53.1251 32.5823 54.6896C32.5823 57.842 48.1948 60.263 59.7172 55.6658L55.7107 53.2266C47.8966 55.7699 33.461 54.9239 37.7315 51.5189ZM39.6929 58.5943C36.8633 58.5943 35.0353 60.3749 35.0353 61.6869C35.0353 65.7218 51.9423 66.1201 58.6528 62.0123L54.4032 59.2451C49.3977 61.3927 36.8031 61.7077 39.6929 58.5943ZM30.2129 62.257C25.5972 62.1659 22.6133 64.2484 22.6133 65.9951C22.6133 75.2988 69.932 74.8537 69.932 65.3443C69.932 63.7694 68.0621 63.0171 67.3979 62.6605C71.2605 71.7507 28.7432 71.0401 28.7432 65.6697C28.7432 64.4514 31.8893 63.2306 34.7895 63.8007L32.3391 62.4158C31.6349 62.3137 30.9245 62.2624 30.2129 62.257ZM74.9165 68.5202C67.7248 75.4446 49.5233 77.9254 31.1936 73.6458C49.5207 81.2731 74.8249 77.0299 74.9165 68.5202Z" fill="#F8F8F8"/>
</svg>
