<svg width="96" height="96" viewBox="0 0 165 165" fill="none" xmlns="http://www.w3.org/2000/svg">
<rect width="165" height="165" rx="32" fill="#92A7C8"/>
<mask id="mask0_3016_410" style="mask-type:luminance" maskUnits="userSpaceOnUse" x="30" y="30" width="105" height="105">
<path d="M30.0664 30.0667H134.2V134.2H30.0664V30.0667Z" fill="white"/>
</mask>
<g mask="url(#mask0_3016_410)">
<path fill-rule="evenodd" clip-rule="evenodd" d="M30.0664 30.0667H134.2V134.2H30.0664V30.0667ZM109.672 117.365C104.843 117.365 102.114 114.849 100.018 111.421L92.0648 116.042C94.9371 121.717 100.808 126.047 109.898 126.047C119.192 126.047 126.112 121.222 126.112 112.41C126.112 104.24 121.417 100.608 113.104 97.0374L110.657 95.9917C106.457 94.1694 104.639 92.9849 104.639 90.0474C104.639 87.6741 106.461 85.8561 109.325 85.8561C112.132 85.8561 113.941 87.0406 115.621 90.0474L123.24 85.1575C120.016 79.4866 115.547 77.3215 109.325 77.3215C100.586 77.3215 94.9935 82.91 94.9935 90.2514C94.9935 98.2132 99.6795 101.984 106.743 104.991L109.19 106.041C113.655 107.993 116.315 109.182 116.315 112.536C116.315 115.339 113.725 117.365 109.672 117.365ZM71.7501 117.3C68.3875 117.3 66.986 115 65.45 112.267L57.4838 117.092C59.7921 121.977 64.3306 126.03 72.1623 126.03C80.8357 126.03 86.7757 121.418 86.7757 111.286V77.8769H76.9915V111.156C76.9915 116.046 74.9609 117.3 71.7458 117.3" fill="#F8F8F8"/>
</g>
</svg>
