<svg width="82" height="85" viewBox="0 0 82 85" fill="none" xmlns="http://www.w3.org/2000/svg">
<path d="M0 27.9593C0 25.4899 1.30106 23.2033 3.42385 21.9417L36.8044 2.10416C38.9897 0.805451 41.7073 0.793573 43.9039 2.07313L78.0285 21.9513C80.1811 23.2052 81.5051 25.5087 81.5051 27.9999V60.5465C81.5051 63.2423 79.9569 65.6986 77.5248 66.8616L43.3952 83.1814C41.4682 84.1028 39.226 84.094 37.3064 83.1575L3.93091 66.876C1.52574 65.7027 0 63.2608 0 60.5847V27.9593Z" fill="white"/>
<path d="M57.0936 64.688C57.0936 65.6 56.7576 66.392 56.0856 67.064C55.4616 67.688 54.7176 68 53.8536 68H29.0856C28.2216 68 27.4536 67.688 26.7816 67.064C26.1576 66.392 25.8456 65.6 25.8456 64.688V22.64C25.8456 21.68 26.1576 20.888 26.7816 20.264C27.4536 19.64 28.2216 19.328 29.0856 19.328H53.8536C54.7176 19.328 55.4616 19.64 56.0856 20.264C56.7576 20.888 57.0936 21.68 57.0936 22.64V24.584C57.0936 25.496 56.7576 26.288 56.0856 26.96C55.4616 27.584 54.7176 27.896 53.8536 27.896H35.2776C34.7016 27.896 34.4136 28.208 34.4136 28.832V38.408C34.4136 39.08 34.7016 39.416 35.2776 39.416H51.2616C52.2216 39.416 53.0136 39.728 53.6376 40.352C54.2616 40.976 54.5736 41.744 54.5736 42.656V44.672C54.5736 45.584 54.2616 46.376 53.6376 47.048C53.0136 47.672 52.2216 47.984 51.2616 47.984H35.2776C34.7016 47.984 34.4136 48.272 34.4136 48.848V58.568C34.4136 59.192 34.7016 59.504 35.2776 59.504H53.8536C54.7176 59.504 55.4616 59.816 56.0856 60.44C56.7576 61.064 57.0936 61.856 57.0936 62.816V64.688Z" fill="#92A7C8"/>
</svg>
