<svg width="82" height="85" viewBox="0 0 82 85" fill="none" xmlns="http://www.w3.org/2000/svg">
<path d="M1.4998 27.9999V60.5465C1.4998 62.6646 2.71619 64.5946 4.62716 65.5084L38.7568 81.8281C40.2708 82.5521 42.0325 82.5452 43.5409 81.8094L76.9163 65.5278C78.8061 64.6059 80.0049 62.6873 80.0049 60.5847V27.9593C80.0049 26.0191 78.9826 24.2224 77.3147 23.2312L43.9342 3.39364C42.2172 2.37322 40.0819 2.36389 38.356 3.36926L4.2314 23.2474C2.54007 24.2326 1.4998 26.0425 1.4998 27.9999Z" fill="#92A7C8" stroke="#FBFCFD" stroke-width="3"/>
<path d="M24.4113 64.688C24.4113 65.6 24.7473 66.392 25.4193 67.064C26.0433 67.688 26.7873 68 27.6513 68H52.4193C53.2833 68 54.0513 67.688 54.7233 67.064C55.3473 66.392 55.6593 65.6 55.6593 64.688V22.64C55.6593 21.68 55.3473 20.888 54.7233 20.264C54.0513 19.64 53.2833 19.328 52.4193 19.328H27.6513C26.7873 19.328 26.0433 19.64 25.4193 20.264C24.7473 20.888 24.4113 21.68 24.4113 22.64V24.584C24.4113 25.496 24.7473 26.288 25.4193 26.96C26.0433 27.584 26.7873 27.896 27.6513 27.896H46.2273C46.8033 27.896 47.0913 28.208 47.0913 28.832V38.408C47.0913 39.08 46.8033 39.416 46.2273 39.416H30.2433C29.2833 39.416 28.4913 39.728 27.8673 40.352C27.2433 40.976 26.9313 41.744 26.9313 42.656V44.672C26.9313 45.584 27.2433 46.376 27.8673 47.048C28.4913 47.672 29.2833 47.984 30.2433 47.984H46.2273C46.8033 47.984 47.0913 48.272 47.0913 48.848V58.568C47.0913 59.192 46.8033 59.504 46.2273 59.504H27.6513C26.7873 59.504 26.0433 59.816 25.4193 60.44C24.7473 61.064 24.4113 61.856 24.4113 62.816V64.688Z" fill="white"/>
</svg>
