<svg width="96" height="96" viewBox="0 0 165 165" fill="none" xmlns="http://www.w3.org/2000/svg">
<rect width="165" height="165" rx="32" fill="#92A7C8"/>
<path d="M106.203 46.4375C105.892 46.4375 105.594 46.561 105.374 46.7807C105.155 47.0005 105.031 47.2986 105.031 47.6094V69.082L100.164 66.2422C99.8636 66.0645 99.5209 65.9708 99.1719 65.9708C98.8228 65.9708 98.4801 66.0645 98.1797 66.2422L86.4844 73.0625C86.1854 73.2351 85.937 73.4834 85.7642 73.7823C85.5914 74.0812 85.5003 74.4204 85.5 74.7656V88.4219C85.5 89.125 85.875 89.7734 86.4844 90.125L98.1797 96.9453C98.4801 97.123 98.8228 97.2167 99.1719 97.2167C99.5209 97.2167 99.8636 97.123 100.164 96.9453L111.859 90.125C112.158 89.9524 112.407 89.7041 112.58 89.4052C112.752 89.1063 112.843 88.7671 112.844 88.4219V51.2422C112.843 50.9015 112.753 50.567 112.583 50.2717C112.413 49.9764 112.169 49.7306 111.875 49.5586L106.785 46.5977C106.61 46.4942 106.41 46.4389 106.207 46.4375H106.203ZM67.9219 65.9766C67.5735 65.9761 67.2312 66.0678 66.9297 66.2422L55.2344 73.0625C54.9354 73.2351 54.687 73.4834 54.5142 73.7823C54.3414 74.0812 54.2503 74.4204 54.25 74.7656V88.4219C54.25 89.125 54.625 89.7734 55.2344 90.125L66.9297 96.9453C67.543 97.2969 68.2969 97.2969 68.9141 96.9453L80.6094 90.125C80.9084 89.9524 81.1567 89.7041 81.3295 89.4052C81.5023 89.1063 81.5934 88.7671 81.5938 88.4219V74.7656C81.5942 74.4202 81.5034 74.0808 81.3306 73.7817C81.1577 73.4826 80.9089 73.2345 80.6094 73.0625L68.9141 66.2422C68.6125 66.0678 68.2702 65.9761 67.9219 65.9766ZM130.422 65.9766C130.073 65.9748 129.731 66.0665 129.43 66.2422L117.734 73.0625C117.435 73.2351 117.187 73.4834 117.014 73.7823C116.841 74.0812 116.75 74.4204 116.75 74.7656V88.4219C116.75 89.125 117.125 89.7734 117.734 90.125L129.078 96.9805C129.378 97.1624 129.721 97.2599 130.072 97.2627C130.423 97.2654 130.768 97.1733 131.07 96.9961L136.648 93.7539C136.78 93.6766 136.888 93.5664 136.964 93.4342C137.04 93.302 137.079 93.1523 137.079 93C137.079 92.8477 137.04 92.698 136.964 92.5658C136.888 92.4336 136.78 92.3234 136.648 92.2461L124.562 85.125V78.1172L130.422 74.707L136.281 78.1172V83C136.281 83.6523 136.828 83.7539 137.195 83.5352C139.17 82.3822 141.147 81.2325 143.125 80.0859C143.419 79.9142 143.664 79.6685 143.834 79.3731C144.003 79.0778 144.093 78.7431 144.094 78.4023V74.7695C144.094 74.4241 144.003 74.0847 143.831 73.7856C143.658 73.4865 143.409 73.2384 143.109 73.0664L131.414 66.2461C131.113 66.071 130.77 65.9793 130.422 65.9805V65.9766ZM36.6719 65.9844C36.3233 65.9826 35.9807 66.0743 35.6797 66.25L23.9844 73.0625C23.685 73.2367 23.4366 73.4864 23.2638 73.7866C23.0911 74.0868 23.0001 74.4271 23 74.7734V92.207C23 93.0586 23.9219 93.5859 24.6562 93.1602L29.8438 90.1406C30.1384 89.9683 30.3828 89.7218 30.5527 89.4258C30.7227 89.1298 30.8122 88.7945 30.8125 88.4531V78.1289L36.6719 74.7109L42.5312 78.1289V88.4531C42.5318 88.7939 42.6215 89.1285 42.7915 89.4239C42.9614 89.7192 43.2057 89.965 43.5 90.1367L48.6875 93.1602C48.855 93.2578 49.0453 93.3095 49.2392 93.31C49.433 93.3105 49.6236 93.2599 49.7916 93.1632C49.9597 93.0665 50.0992 92.9272 50.1961 92.7593C50.2931 92.5914 50.344 92.4009 50.3438 92.207V74.7734C50.3436 74.4271 50.2526 74.0868 50.0799 73.7866C49.9072 73.4864 49.6587 73.2367 49.3594 73.0625L37.6641 66.25C37.363 66.0743 37.0204 65.9826 36.6719 65.9844ZM99.1719 74.7031L105.031 78.1211V85.0664L99.1719 88.4844L93.3125 85.0664V78.1172L99.1719 74.6992V74.7031ZM130.422 77.7031L127.074 79.6562V83.5547L130.422 85.5L133.77 83.5547V79.6562L130.422 77.7031ZM83.1797 93.3047C82.7739 93.3024 82.3743 93.4046 82.0195 93.6016L71.0352 99.9531C70.6817 100.154 70.3879 100.444 70.184 100.796C69.9801 101.147 69.8735 101.547 69.875 101.953V114.633C69.875 115.449 70.332 116.219 71.0352 116.633L73.9258 118.281C75.3125 118.965 75.8242 118.965 76.4531 118.965C78.5234 118.965 79.7031 117.727 79.7031 115.539V103.012C79.7042 102.969 79.6967 102.927 79.681 102.887C79.6654 102.847 79.642 102.811 79.6121 102.78C79.5823 102.75 79.5466 102.725 79.5072 102.709C79.4678 102.692 79.4255 102.684 79.3828 102.684H77.9922C77.9052 102.684 77.8217 102.718 77.7602 102.78C77.6986 102.841 77.6641 102.925 77.6641 103.012V115.539C77.6641 116.488 76.6602 117.465 75.0234 116.648L72.0156 114.914C71.9666 114.883 71.9259 114.841 71.8973 114.79C71.8687 114.74 71.8529 114.683 71.8516 114.625V101.945C71.8516 101.832 71.9062 101.699 72.0195 101.641L83.0039 95.3086C83.0565 95.2795 83.1157 95.2643 83.1758 95.2643C83.2359 95.2643 83.295 95.2795 83.3477 95.3086L94.3438 101.637C94.457 101.699 94.5117 101.812 94.5117 101.945V114.625C94.5114 114.686 94.4959 114.746 94.4666 114.799C94.4372 114.852 94.395 114.897 94.3438 114.93L83.3477 121.285C83.295 121.314 83.2359 121.329 83.1758 121.329C83.1157 121.329 83.0565 121.314 83.0039 121.285L80.1992 119.613C80.1211 119.574 80.0039 119.555 79.9297 119.594C79.4156 119.923 78.8582 120.18 78.2734 120.355C78.082 120.414 77.8242 120.531 78.375 120.836L82.0195 123.004C82.3759 123.198 82.774 123.302 83.1797 123.309C83.5839 123.313 83.9809 123.202 84.3242 122.988L95.3125 116.633C95.666 116.432 95.9598 116.142 96.1637 115.79C96.3675 115.439 96.4742 115.039 96.4727 114.633V101.953C96.4675 101.548 96.3581 101.151 96.1549 100.801C95.9516 100.451 95.6615 100.159 95.3125 99.9531L84.3242 93.6055C83.9754 93.4076 83.5807 93.3052 83.1797 93.3086V93.3047ZM100.316 99.1562C100.039 99.1568 99.7652 99.2118 99.5095 99.3183C99.2538 99.4248 99.0215 99.5806 98.826 99.7768C98.6305 99.9731 98.4755 100.206 98.37 100.462C98.2645 100.718 98.2104 100.993 98.2109 101.27C98.2114 101.547 98.2665 101.821 98.373 102.076C98.4795 102.332 98.6353 102.564 98.8315 102.76C99.0278 102.955 99.2606 103.11 99.5167 103.216C99.7728 103.321 100.047 103.376 100.324 103.375C100.884 103.374 101.42 103.151 101.815 102.754C102.209 102.358 102.431 101.821 102.43 101.262C102.429 100.702 102.205 100.166 101.809 99.7713C101.413 99.3765 100.876 99.1552 100.316 99.1562ZM100.293 99.4922C101.285 99.4922 102.09 100.273 102.09 101.262C102.083 101.736 101.891 102.189 101.556 102.524C101.22 102.86 100.767 103.052 100.293 103.059C99.8212 103.053 99.3708 102.861 99.0405 102.524C98.7102 102.188 98.5271 101.733 98.5312 101.262C98.5297 101.03 98.5742 100.799 98.662 100.585C98.7499 100.37 98.8795 100.174 99.0433 100.01C99.2071 99.8453 99.4019 99.7148 99.6164 99.626C99.8308 99.5371 100.061 99.4917 100.293 99.4922ZM99.5234 100.066V102.438H99.9727V101.492H100.395C100.566 101.492 100.605 101.562 100.645 101.695C100.645 101.715 100.715 102.332 100.734 102.445H101.223C101.161 102.239 101.123 102.027 101.109 101.813C101.055 101.508 101.039 101.297 100.715 101.277C100.887 101.219 101.172 101.129 101.172 100.691C101.172 100.062 100.625 100.066 100.34 100.066H99.5234ZM99.9727 100.445H100.355C100.473 100.445 100.699 100.445 100.699 100.766C100.699 100.898 100.641 101.117 100.332 101.109H99.9727V100.445ZM86.125 102.383C82.9883 102.383 81.125 103.723 81.125 105.926C81.125 108.34 82.9922 108.984 85.9961 109.285C89.5898 109.648 89.8711 110.164 89.8711 110.867C89.8711 112.102 88.8789 112.613 86.5586 112.613C83.6484 112.613 83.0117 111.895 82.8008 110.449C82.7812 110.293 82.6445 110.18 82.4727 110.18H81.043C81.0002 110.18 80.9579 110.188 80.9186 110.205C80.8792 110.221 80.8435 110.246 80.8137 110.276C80.7838 110.307 80.7604 110.343 80.7448 110.383C80.7291 110.423 80.7216 110.465 80.7227 110.508C80.7227 112.352 81.7305 114.559 86.5391 114.559C90.0664 114.559 92.0625 113.191 92.0625 110.793C92.0625 108.418 90.4609 107.785 87.0781 107.328C83.6562 106.871 83.3164 106.641 83.3164 105.84C83.3164 105.176 83.5977 104.305 86.1289 104.305C88.3867 104.305 89.2305 104.801 89.5742 106.32C89.6133 106.477 89.7188 106.566 89.8711 106.566H91.2969C91.3906 106.566 91.4727 106.527 91.5273 106.473C91.5859 106.398 91.6211 106.324 91.6055 106.23C91.3789 103.605 89.6445 102.383 86.125 102.383Z" fill="white"/>
</svg>
