<svg width="96" height="96" viewBox="0 0 97 96" fill="none" xmlns="http://www.w3.org/2000/svg">
<rect x="0.0166016" width="96.1381" height="95.6578" rx="32" fill="#92A7C8"/>
<path d="M47.6302 14.3893C30.5122 14.3893 31.5812 21.7635 31.5812 21.7635L31.6003 29.4031H47.9357V31.6969H25.112C25.112 31.6969 14.1582 30.4629 14.1582 47.6206C14.1582 64.7784 23.7189 64.1702 23.7189 64.1702H29.4248V56.2082C29.4248 56.2082 29.1172 46.7109 38.8329 46.7109H55.0344C55.0344 46.7109 64.1371 46.8569 64.1371 37.9717V23.2801C64.1371 23.2801 65.5191 14.3893 47.6302 14.3893ZM38.6229 19.5266C40.2483 19.5266 41.5618 20.8315 41.5618 22.4459C41.5618 24.0604 40.2483 25.3653 38.6229 25.3653C36.9977 25.3653 35.6841 24.0604 35.6841 22.4459C35.6841 20.8315 36.9977 19.5266 38.6229 19.5266Z" fill="white"/>
<path d="M48.1167 81.024C65.2345 81.024 64.1658 73.6501 64.1658 73.6501L64.1466 66.0103H47.8113V63.7164H70.635C70.635 63.7164 81.5887 64.9506 81.5887 47.7927C81.5887 30.6349 72.0281 31.2434 72.0281 31.2434H66.3222V39.2054C66.3222 39.2054 66.6297 48.7027 56.914 48.7027H40.7126C40.7126 48.7027 31.6097 48.5563 31.6097 57.4417V72.1332C31.6097 72.1332 30.2277 81.024 48.1167 81.024ZM57.124 75.8867C55.4986 75.8867 54.1851 74.5818 54.1851 72.9675C54.1851 71.3529 55.4986 70.048 57.124 70.048C58.7491 70.048 60.063 71.3529 60.063 72.9675C60.063 74.5818 58.7491 75.8867 57.124 75.8867Z" fill="white"/>
</svg>
