<svg width="96" height="96" viewBox="0 0 165 165" fill="none" xmlns="http://www.w3.org/2000/svg">
<rect width="165" height="165" rx="32" fill="#92A7C8"/>
<path d="M94.1254 82.1548C94.1254 85.343 92.8592 88.4007 90.6053 90.6556C88.3514 92.9105 85.2943 94.178 82.106 94.1795C78.9169 94.1795 75.8584 92.9126 73.6033 90.6575C71.3482 88.4025 70.0813 85.3439 70.0813 82.1548C70.0813 78.9665 71.3475 75.9088 73.6014 73.6539C75.8553 71.399 78.9125 70.1315 82.1007 70.1301C85.2898 70.1301 88.3484 71.3969 90.6034 73.652C92.8585 75.9071 94.1254 78.9656 94.1254 82.1548ZM108.366 24.6663C101.127 24.6663 91.657 29.829 82.0792 38.7669C72.5067 29.8774 63.0311 24.7739 55.798 24.7739C53.5931 24.7739 51.5872 25.274 49.8501 26.2689C42.4557 30.5335 40.7993 43.822 44.6176 60.4985C28.2476 65.5536 17.5996 73.6364 17.5996 82.1548C17.5996 90.7054 28.3014 98.8097 44.7197 103.827C40.9338 120.568 42.6224 133.878 50.033 138.137C51.7539 139.143 53.7437 139.616 55.9593 139.616C63.1924 139.616 72.6681 134.454 82.2459 125.505C91.8183 134.4 101.294 139.503 108.527 139.503C110.732 139.503 112.738 139.019 114.475 138.024C121.864 133.765 123.526 120.477 119.707 103.795C136.018 98.7829 146.666 90.6839 146.666 82.1548C146.666 73.6041 135.965 65.4998 119.546 60.4716C123.332 43.7467 121.643 30.4259 114.233 26.1613C112.441 25.1546 110.421 24.6389 108.366 24.6663ZM108.339 30.5281V30.5604C109.549 30.5604 110.522 30.797 111.34 31.2433C114.921 33.2977 116.475 41.1116 115.265 51.1626C114.975 53.6364 114.502 56.2446 113.921 58.9066C108.422 57.5765 102.84 56.6171 97.2122 56.0349C93.8595 51.4111 90.2035 47.015 86.2684 42.8755C94.8299 34.9164 102.87 30.5496 108.344 30.5335L108.339 30.5281ZM55.798 30.6357C61.2403 30.6357 69.3177 34.9809 77.9006 42.897C74.2115 46.769 70.5331 51.1626 67.0375 56.0295C61.3975 56.6091 55.8039 57.5758 50.2965 58.9228C49.719 56.4007 49.2631 53.8522 48.9305 51.2863C47.6937 41.2406 49.2209 33.4321 52.7703 31.3509C53.7921 30.8669 54.9214 30.6625 55.798 30.6357ZM82.0523 47.0379C84.5045 49.5619 86.9425 52.3655 89.3661 55.4487C86.9998 55.3412 84.5798 55.2659 82.1329 55.2659C79.6556 55.2623 77.2177 55.3232 74.8192 55.4487C77.1854 52.3726 79.6323 49.5601 82.0523 47.0379ZM82.1329 61.1599C86.1125 61.1599 90.0759 61.3428 93.9748 61.6601C96.1618 64.7935 98.2824 68.1277 100.337 71.6627C102.334 75.1081 104.159 78.5965 105.811 82.1279C104.155 85.6503 102.337 89.1728 100.364 92.6145C98.3201 96.1639 96.2066 99.5411 94.0178 102.671C86.1244 103.363 78.186 103.372 70.2911 102.698C68.0352 99.4517 65.9128 96.1146 63.9292 92.6952C61.9322 89.2498 60.1074 85.7615 58.4546 82.2301C60.1153 78.6491 61.933 75.1429 63.9023 71.7219C65.9458 68.1725 68.0593 64.8061 70.2481 61.6762C74.2 61.3252 78.1655 61.1494 82.1329 61.1492V61.1599ZM62.5847 62.5259C61.2941 64.5533 60.0034 66.6291 58.7988 68.7641C57.5941 70.8614 56.4558 72.9659 55.3839 75.0776C53.9588 71.5498 52.7488 68.0327 51.7485 64.6071C55.1903 63.8004 58.8203 63.0798 62.5847 62.5259ZM101.627 62.5259C105.37 63.0744 108.966 63.7681 112.415 64.6071C111.447 68.0058 110.237 71.5014 108.866 75.0023C106.671 70.7219 104.257 66.5575 101.633 62.5259H101.627ZM118.1 66.1559C120.706 66.9661 123.171 67.8588 125.494 68.834C134.808 72.8136 140.831 78.0193 140.831 82.1494C140.804 86.2795 134.781 91.5067 125.467 95.4594C123.208 96.4274 120.735 97.2986 118.18 98.1106C116.564 92.6439 114.588 87.2903 112.265 82.0849C114.685 76.6157 116.621 71.2755 118.1 66.1451V66.1559ZM46.0642 66.1774C47.5592 71.3401 49.5329 76.7017 51.9797 82.2032C49.6702 87.3764 47.7189 92.7022 46.1395 98.1429C43.5366 97.3362 41.0629 96.4328 38.7719 95.454C29.4576 91.4906 23.4345 86.2795 23.4345 82.1494C23.4345 78.0193 29.4576 72.7813 38.7719 68.834C41.0306 67.866 43.5044 66.9948 46.0642 66.1774ZM108.866 89.1943C110.291 92.7275 111.501 96.2499 112.501 99.6702C109.059 100.514 105.424 101.23 101.66 101.768C104.279 97.7039 106.681 93.5072 108.866 89.1943ZM55.3839 89.3018C56.4594 91.4099 57.5888 93.5126 58.8257 95.6207C60.0625 97.7216 61.3263 99.7706 62.617 101.768C58.9908 101.243 55.391 100.55 51.8292 99.6917C52.7972 96.3037 54.0125 92.7974 55.3785 89.2965L55.3839 89.3018ZM113.969 105.365C114.572 108.016 115.045 110.571 115.335 113.018C116.572 123.064 115.045 130.872 111.496 132.959C110.705 133.443 109.678 133.647 108.468 133.647C103.026 133.647 94.9482 129.307 86.3652 121.386C90.0544 117.514 93.7328 113.125 97.2284 108.264C103.182 107.629 108.812 106.656 113.969 105.365ZM50.3503 105.419C55.5129 106.677 61.1381 107.651 67.059 108.28C70.6084 113.147 74.2921 117.567 78.0028 121.434C69.4253 129.409 61.3747 133.776 55.9001 133.776C54.8663 133.781 53.8464 133.538 52.9262 133.066C49.3446 131.023 47.7905 123.203 49.0005 113.152C49.2909 110.678 49.7695 108.076 50.3503 105.419ZM74.8729 108.861C77.2427 108.976 79.6538 109.036 82.106 109.044C84.5834 109.047 87.0213 108.986 89.4198 108.861C87.0536 111.937 84.6067 114.749 82.1867 117.277C79.7345 114.746 77.2965 111.94 74.8729 108.861Z" fill="white"/>
</svg>
