<svg width="96" height="96" viewBox="0 0 165 165" fill="none" xmlns="http://www.w3.org/2000/svg">
<rect width="165" height="165" rx="32" fill="#92A7C8"/>
<path d="M105.658 50.1122C105.092 50.1122 104.709 50.181 104.311 50.2744V50.3383H104.38C104.645 50.8497 105.097 51.2233 105.432 51.6806C105.697 52.2067 105.923 52.7327 106.189 53.2539L106.258 53.1802C106.72 52.8557 106.946 52.3345 106.946 51.5429C106.749 51.3118 106.72 51.0807 106.553 50.8546C106.356 50.5252 105.933 50.3629 105.668 50.1023L105.658 50.1122ZM53.3692 114.983H48.8114C48.6823 107.739 48.2394 100.505 47.4839 93.3002H47.4446L40.5121 114.983H37.0458L30.1625 93.3002H30.1133C29.5752 100.516 29.2555 107.747 29.1546 114.983H25C25.2721 105.313 25.944 96.2502 27.0158 87.7935H32.67L39.2337 107.775H39.2731L45.8958 87.7935H51.2796C52.4694 97.7055 53.1709 106.769 53.3839 114.983H53.3692ZM73.1194 94.9227C71.2609 104.982 68.8157 112.292 65.7837 116.851C63.4139 120.371 60.8196 122.13 58.0007 122.127C57.2533 122.127 56.3257 121.9 55.2178 121.448V119.019C55.7619 119.104 56.3946 119.147 57.1157 119.147C58.4333 119.147 59.4937 118.783 60.2967 118.056C61.2637 117.171 61.7472 116.179 61.7472 115.081C61.7472 114.317 61.3702 112.77 60.6163 110.44L55.6308 94.9227H60.105L63.6794 106.526C64.489 109.161 64.825 111.002 64.6873 112.047C66.654 106.81 68.0225 101.101 68.7927 94.9227H73.1194ZM133.717 114.983H120.786V87.7935H125.138V111.639H133.717V114.983ZM117.394 115.646L112.399 113.188C112.844 112.818 113.262 112.408 113.652 111.959C115.78 109.468 116.842 105.775 116.838 100.882C116.838 91.8842 113.307 87.3838 106.243 87.3805C102.782 87.3805 100.077 88.5228 98.1305 90.8074C96.0131 93.3051 94.9543 96.9844 94.9543 101.845C94.951 106.628 95.8918 110.135 97.7765 112.367C99.4941 114.383 102.088 115.391 105.56 115.391C106.858 115.391 108.046 115.23 109.124 114.909L115.639 118.705L117.409 115.646H117.394ZM101.208 109.54C100.104 107.767 99.5514 104.922 99.5514 101.005C99.5514 94.154 101.633 90.7287 105.796 90.7287C107.979 90.7287 109.58 91.5482 110.599 93.1871C111.7 94.9669 112.251 97.7907 112.251 101.658C112.251 108.565 110.17 112.02 106.007 112.023C103.821 112.023 102.218 111.203 101.199 109.565L101.208 109.54ZM93.0565 107.45C93.0565 109.764 92.2108 111.659 90.5195 113.134C88.8347 114.609 86.5665 115.346 83.7148 115.346C81.0451 115.346 78.4835 114.501 75.9809 112.814L77.1462 110.474C79.2964 111.552 81.2467 112.09 82.997 112.087C84.6293 112.087 85.9126 111.726 86.8468 111.005C87.3148 110.654 87.6927 110.197 87.9492 109.671C88.2057 109.145 88.3334 108.566 88.3217 107.981C88.3217 106.359 87.1909 104.982 85.1357 103.827C83.2281 102.78 79.4177 100.597 79.4177 100.597C77.3428 99.0871 76.3103 97.4695 76.3103 94.8096C76.3103 92.6004 77.0806 90.8222 78.6212 89.475C80.165 88.1114 82.1644 87.4313 84.6195 87.4346C87.1401 87.4346 89.4346 88.1065 91.5028 89.4504L90.4556 91.7907C88.8067 91.0625 87.0267 90.6778 85.2242 90.6599C83.8312 90.6599 82.7594 90.9975 82.0088 91.6728C81.6308 91.988 81.3259 92.3818 81.1154 92.8266C80.9048 93.2715 80.7936 93.7569 80.7894 94.2491C80.7894 95.8617 81.9399 97.2482 84.0639 98.4282C85.9962 99.4853 89.9 101.722 89.9 101.722C92.0289 103.222 93.086 104.82 93.086 107.465L93.0565 107.45ZM139.185 78.678C136.554 78.6092 134.514 78.8747 132.808 79.6023C132.316 79.799 131.529 79.799 131.461 80.4234C131.731 80.684 131.77 81.1117 132.001 81.4756C132.395 82.1344 133.073 83.0145 133.703 83.4767C134.384 84.0241 135.084 84.5321 135.802 85.0008C137.08 85.7875 138.531 86.2546 139.785 87.0462C140.497 87.5083 141.225 88.0934 141.948 88.5851C142.307 88.8309 142.538 89.2734 143 89.4308V89.3324C142.774 89.0374 142.705 88.6097 142.484 88.2803C142.154 87.9508 141.825 87.6558 141.5 87.3313C140.536 86.0581 139.384 84.939 138.083 84.0126C137.031 83.2948 134.73 82.2917 134.297 81.0872L134.234 81.0183C134.951 80.9544 135.807 80.6938 136.495 80.4972C137.611 80.2022 138.634 80.2661 139.789 79.976C140.314 79.8383 140.838 79.6843 141.363 79.5138V79.2188C140.773 78.6288 140.33 77.8274 139.721 77.2768C138.017 75.7913 136.203 74.4385 134.293 73.2303C133.26 72.5715 131.952 72.1487 130.866 71.5882C130.472 71.3915 129.813 71.2932 129.587 70.9637C128.997 70.2459 128.653 69.2921 128.235 68.4366C127.271 66.5632 126.374 64.6559 125.546 62.7185C124.956 61.4303 124.597 60.1471 123.874 58.9671C120.482 53.3768 116.809 49.9892 111.16 46.6754C109.945 45.9871 108.49 45.6921 106.951 45.3282C106.13 45.2889 105.309 45.2299 104.493 45.1955C103.952 44.9644 103.431 44.34 102.968 44.0401C101.1 42.8601 96.2622 40.3034 94.8855 43.6861C94.0005 45.8199 96.1982 47.9242 96.9603 49.0059C97.5257 49.7582 98.2387 50.6186 98.632 51.4642C98.8631 52.0346 98.927 52.6197 99.1581 53.2146C99.6792 54.6601 100.176 56.2727 100.864 57.6248C101.223 58.3132 101.616 59.0359 102.079 59.6554C102.344 60.0143 102.796 60.1815 102.9 60.7715C102.438 61.4402 102.408 62.4137 102.142 63.2298C100.962 66.9517 101.425 71.5537 103.096 74.2923C103.622 75.1085 104.876 76.9178 106.553 76.2246C108.028 75.6346 107.703 73.7663 108.126 72.1192C108.224 71.7258 108.16 71.4653 108.362 71.1998V71.2735C108.824 72.1978 109.286 73.0779 109.709 74.0023C110.722 75.6149 112.492 77.2866 113.972 78.4027C114.759 78.9927 115.383 80.0153 116.366 80.3792V80.2808H116.293C116.081 79.9957 115.801 79.858 115.535 79.6269C114.913 79.0159 114.338 78.3585 113.815 77.6603C112.434 75.7646 111.206 73.7621 110.142 71.6717C109.601 70.6392 109.149 69.5281 108.716 68.5103C108.519 68.117 108.519 67.527 108.19 67.3303C107.698 68.0482 106.976 68.6726 106.617 69.5576C105.992 70.9736 105.928 72.7141 105.692 74.5234C105.56 74.5578 105.623 74.5234 105.56 74.5922C104.507 74.3366 104.148 73.2451 103.755 72.3306C102.772 69.9952 102.61 66.2437 103.46 63.5543C103.691 62.866 104.675 60.6928 104.281 60.034C104.075 59.4096 103.426 59.0507 103.067 58.5443C102.606 57.8848 102.21 57.1816 101.887 56.4448C101.1 54.606 100.707 52.5705 99.8513 50.7317C99.458 49.8811 98.7697 48.9912 98.2092 48.2094C97.5847 47.3244 96.8964 46.7 96.3998 45.6527C96.2376 45.2938 96.0065 44.6989 96.2671 44.3056C96.3359 44.0401 96.4736 43.9368 96.7292 43.8631C97.1619 43.5091 98.3763 43.9712 98.8041 44.1679C100.018 44.6596 101.041 45.1217 102.059 45.8101C102.521 46.1346 103.018 46.759 103.608 46.9212H104.296C105.348 47.1523 106.533 46.9901 107.516 47.2802C109.262 47.8407 110.835 48.6568 112.246 49.5418C116.595 52.3188 120.131 56.1964 122.497 60.7813C122.891 61.5385 123.063 62.2318 123.422 63.0184C124.11 64.6409 124.961 66.2782 125.659 67.8466C126.347 69.3953 127.011 70.9736 127.999 72.2568C128.491 72.9452 130.467 73.3041 131.352 73.663C132.006 73.958 133.024 74.2284 133.614 74.5873C134.745 75.2757 135.846 76.0623 136.908 76.8195C137.449 77.1932 139.086 78.0143 139.185 78.678Z" fill="white"/>
</svg>
