<svg width="96" height="96" viewBox="0 0 165 165" fill="none" xmlns="http://www.w3.org/2000/svg">
<rect width="165" height="165" rx="32" fill="#92A7C8"/>
<path d="M124.733 30H40.2667C37.5438 30 34.9324 31.0817 33.007 33.007C31.0817 34.9324 30 37.5438 30 40.2667V124.733C30 127.456 31.0817 130.068 33.007 131.993C34.9324 133.918 37.5438 135 40.2667 135H124.733C126.082 135 127.417 134.734 128.662 134.218C129.908 133.703 131.04 132.946 131.993 131.993C132.946 131.04 133.703 129.908 134.218 128.662C134.734 127.417 135 126.082 135 124.733V40.2667C135 38.9184 134.734 37.5834 134.218 36.3378C133.703 35.0922 132.946 33.9604 131.993 33.007C131.04 32.0537 129.908 31.2975 128.662 30.7815C127.417 30.2656 126.082 30 124.733 30ZM90.9 88.3333H77.775V125.9H67.3333V88.3333H54.2083V79.8167H90.9V88.3333ZM124.733 119.133C123.889 120.929 122.528 122.432 120.825 123.45C119.033 124.553 117.057 125.324 114.992 125.725C112.689 126.201 110.343 126.435 107.992 126.425C105.586 126.423 103.185 126.208 100.817 125.783C98.8039 125.371 96.8461 124.725 94.9833 123.858V113.883L94.6333 113.533H94.9833V113.942C96.7379 115.311 98.7097 116.375 100.817 117.092C102.921 117.893 105.157 118.289 107.408 118.258C108.585 118.279 109.759 118.161 110.908 117.908C111.771 117.706 112.598 117.372 113.358 116.917C113.954 116.554 114.454 116.054 114.817 115.458C115.176 114.78 115.334 114.014 115.272 113.249C115.21 112.484 114.93 111.753 114.467 111.142C113.918 110.373 113.225 109.719 112.425 109.217C111.454 108.534 110.418 107.948 109.333 107.467L105.425 105.833C102.331 104.559 99.5899 102.558 97.4333 100C95.6285 97.8244 94.675 95.0675 94.75 92.2417C94.682 90.0949 95.164 87.9664 96.15 86.0583C97.091 84.3951 98.4098 82.9764 100 81.9167C101.772 80.7379 103.751 79.9065 105.833 79.4667C108.11 78.9428 110.439 78.6883 112.775 78.7083C114.902 78.6786 117.028 78.8152 119.133 79.1167C120.885 79.3905 122.605 79.84 124.267 80.4583V90.0833C123.499 89.536 122.678 89.067 121.817 88.6833C120.889 88.2841 119.934 87.9527 118.958 87.6917C118.023 87.418 117.067 87.2229 116.1 87.1083C115.208 87.0242 114.309 87.0242 113.417 87.1083C112.318 87.0901 111.22 87.2077 110.15 87.4583C109.272 87.6425 108.426 87.9571 107.642 88.3917C107.029 88.7526 106.51 89.2521 106.125 89.85C105.776 90.431 105.594 91.0972 105.6 91.775C105.586 92.4986 105.789 93.2098 106.183 93.8167C106.662 94.4792 107.255 95.0519 107.933 95.5083C108.756 96.1631 109.657 96.7118 110.617 97.1417L114.292 98.775C115.981 99.4736 117.619 100.292 119.192 101.225C120.575 101.982 121.834 102.946 122.925 104.083C123.994 105.12 124.83 106.373 125.375 107.758C125.934 109.351 126.211 111.029 126.192 112.717C126.15 114.895 125.653 117.041 124.733 119.017V119.133Z" fill="white"/>
</svg>
